M48
; DRILL file {KiCad 8.0.0} date 2024-08-05T12:03:36+0100
; FORMAT={-:-/ absolute / metric / decimal}
; #@! TF.CreationDate,2024-08-05T12:03:36+01:00
; #@! TF.GenerationSoftware,Kicad,Pcbnew,8.0.0
; #@! TF.FileFunction,Plated,1,4,PTH
FMAT,2
METRIC
; #@! TA.AperFunction,Plated,PTH,ViaDrill
T1C0.300
; #@! TA.AperFunction,Plated,PTH,ComponentDrill
T2C0.400
; #@! TA.AperFunction,Plated,PTH,ComponentDrill
T3C0.600
; #@! TA.AperFunction,Plated,PTH,ComponentDrill
T4C1.000
; #@! TA.AperFunction,Plated,PTH,ComponentDrill
T5C2.200
%
G90
G05
T1
X29.164Y-38.197
X29.362Y-52.629
X30.455Y-33.63
X30.508Y-34.61
X30.759Y-51.029
X31.202Y-35.008
X31.217Y-35.814
X31.662Y-49.358
X31.689Y-33.35
X32.064Y-34.604
X32.144Y-35.804
X32.656Y-56.159
X32.944Y-35.804
X33.147Y-42.91
X33.264Y-34.011
X33.858Y-48.26
X33.934Y-46.65
X34.229Y-33.747
X34.655Y-35.195
X34.748Y-48.467
X35.257Y-39.783
X35.352Y-26.728
X35.585Y-24.384
X35.652Y-48.415
X35.805Y-38.649
X35.992Y-53.899
X36.043Y-26.324
X36.068Y-40.986
X36.077Y-36.204
X36.09Y-32.204
X36.398Y-37.859
X36.431Y-36.922
X36.887Y-42.066
X37.198Y-42.803
X37.44Y-44.11
X37.541Y-27.645
X37.557Y-34.07
X37.948Y-35.56
X38.591Y-34.11
X38.656Y-37.702
X38.757Y-40.702
X38.757Y-41.593
X38.806Y-39.832
X38.892Y-36.682
X39.522Y-25.959
X39.687Y-36.595
X40.033Y-23.704
X40.507Y-36.572
X40.757Y-41.172
X41.224Y-38.049
X41.547Y-34.752
X41.758Y-30.124
X41.986Y-36.972
X42.373Y-41.31
X43.237Y-41.246
X43.256Y-38.76
X43.273Y-47.396
X43.561Y-34.773
X43.561Y-43.847
X43.663Y-37.414
X43.775Y-46.376
X44.05Y-49.962
X44.272Y-26.492
X44.348Y-42.494
X44.679Y-45.187
X44.856Y-35.128
X46.564Y-40.164
X46.748Y-42.113
T2
X26.006Y-18.16
X26.006Y-63.16
X26.489Y-16.993
X26.489Y-19.327
X26.489Y-61.993
X26.489Y-64.327
X27.656Y-16.51
X27.656Y-19.81
X27.656Y-61.51
X27.656Y-64.81
X28.823Y-16.993
X28.823Y-19.327
X28.823Y-61.993
X28.823Y-64.327
X29.306Y-18.16
X29.306Y-63.16
X46.006Y-18.16
X46.006Y-63.16
X46.489Y-16.993
X46.489Y-19.327
X46.489Y-61.993
X46.489Y-64.327
X47.656Y-16.51
X47.656Y-19.81
X47.656Y-61.51
X47.656Y-64.81
X48.823Y-16.993
X48.823Y-19.327
X48.823Y-61.993
X48.823Y-64.327
X49.306Y-18.16
X49.306Y-63.16
T4
X27.496Y-25.42
X27.496Y-27.96
X27.496Y-30.5
X27.496Y-33.04
X27.496Y-35.58
X27.496Y-38.12
X27.496Y-40.66
X27.496Y-43.2
X27.496Y-45.74
X27.496Y-48.28
X27.496Y-50.82
X27.496Y-53.36
X31.231Y-42.36
X31.231Y-44.9
X38.42Y-52.0
X40.96Y-52.0
X43.5Y-52.0
X47.816Y-25.43
X47.816Y-27.97
X47.816Y-30.51
X47.816Y-33.05
X47.816Y-35.59
X47.816Y-38.13
X47.816Y-40.67
X47.816Y-43.21
X47.816Y-45.75
X47.816Y-48.29
X47.816Y-50.83
X47.816Y-53.37
T5
X27.656Y-18.16
X27.656Y-63.16
X47.656Y-18.16
X47.656Y-63.16
T3
G00X33.336Y-18.685
M15
G01X33.336Y-17.885
M16
G05
G00X33.336Y-23.015
M15
G01X33.336Y-21.915
M16
G05
G00X41.976Y-18.685
M15
G01X41.976Y-17.885
M16
G05
G00X41.976Y-23.015
M15
G01X41.976Y-21.915
M16
G05
M30
