<?xml version="1.0" standalone="no"?>
 <!DOCTYPE svg PUBLIC "-//W3C//DTD SVG 1.1//EN" 
 "http://www.w3.org/Graphics/SVG/1.1/DTD/svg11.dtd"> 
<svg
  xmlns:svg="http://www.w3.org/2000/svg"
  xmlns="http://www.w3.org/2000/svg"
  xmlns:xlink="http://www.w3.org/1999/xlink"
  version="1.1"
  width="297.0022mm" height="210.0072mm" viewBox="0.0000 0.0000 297.0022 210.0072">
<title>SVG Image created as Characterisation Board-F_Cu.svg date 2024/08/02 13:58:51 </title>
  <desc>Image generated by PCBNEW </desc>
<g style="fill:#000000; fill-opacity:1.0000;stroke:#000000; stroke-opacity:1.0000;
stroke-linecap:round; stroke-linejoin:round;"
 transform="translate(0 0) scale(1 1)">
</g>
<g style="fill:#000000; fill-opacity:1.0000; stroke:none;">
<circle cx="109.2200" cy="78.7400" r="0.8500" /> 
</g>
<g style="fill:#000000; fill-opacity:1.0000; stroke:none;">
<circle cx="109.2200" cy="81.2800" r="0.8500" /> 
<circle cx="109.2200" cy="83.8200" r="0.8500" /> 
<circle cx="109.2200" cy="86.3600" r="0.8500" /> 
<circle cx="109.2200" cy="88.9000" r="0.8500" /> 
<circle cx="109.2200" cy="91.4400" r="0.8500" /> 
<circle cx="109.2200" cy="93.9800" r="0.8500" /> 
<circle cx="109.2200" cy="96.5200" r="0.8500" /> 
<circle cx="109.2200" cy="99.0600" r="0.8500" /> 
<circle cx="109.2200" cy="101.6000" r="0.8500" /> 
<circle cx="104.1400" cy="78.7400" r="0.8500" /> 
</g>
<g style="fill:#000000; fill-opacity:1.0000; stroke:none;">
<circle cx="104.1400" cy="81.2800" r="0.8500" /> 
<circle cx="104.1400" cy="83.8200" r="0.8500" /> 
<circle cx="104.1400" cy="86.3600" r="0.8500" /> 
<circle cx="104.1400" cy="88.9000" r="0.8500" /> 
<circle cx="104.1400" cy="91.4400" r="0.8500" /> 
<circle cx="104.1400" cy="93.9800" r="0.8500" /> 
<circle cx="104.1400" cy="96.5200" r="0.8500" /> 
<circle cx="104.1400" cy="99.0600" r="0.8500" /> 
<circle cx="104.1400" cy="101.6000" r="0.8500" /> 
<circle cx="106.6800" cy="78.7400" r="0.8500" /> 
</g>
<g style="fill:#000000; fill-opacity:1.0000; stroke:none;">
<circle cx="106.6800" cy="81.2800" r="0.8500" /> 
<circle cx="106.6800" cy="83.8200" r="0.8500" /> 
<circle cx="106.6800" cy="86.3600" r="0.8500" /> 
<circle cx="106.6800" cy="88.9000" r="0.8500" /> 
<circle cx="106.6800" cy="91.4400" r="0.8500" /> 
<circle cx="106.6800" cy="93.9800" r="0.8500" /> 
<circle cx="106.6800" cy="96.5200" r="0.8500" /> 
<circle cx="106.6800" cy="99.0600" r="0.8500" /> 
<circle cx="106.6800" cy="101.6000" r="0.8500" /> 
<circle cx="106.6800" cy="53.3400" r="0.8500" /> 
</g>
<g style="fill:#000000; fill-opacity:1.0000; stroke:none;">
<circle cx="106.6800" cy="55.8800" r="0.8500" /> 
<circle cx="106.6800" cy="58.4200" r="0.8500" /> 
<circle cx="106.6800" cy="60.9600" r="0.8500" /> 
<circle cx="106.6800" cy="63.5000" r="0.8500" /> 
<circle cx="106.6800" cy="66.0400" r="0.8500" /> 
<circle cx="106.6800" cy="68.5800" r="0.8500" /> 
<circle cx="106.6800" cy="71.1200" r="0.8500" /> 
<circle cx="106.6800" cy="73.6600" r="0.8500" /> 
<circle cx="106.6800" cy="76.2000" r="0.8500" /> 
<circle cx="127.0000" cy="53.3400" r="0.8500" /> 
</g>
<g style="fill:#000000; fill-opacity:1.0000; stroke:none;">
<circle cx="127.0000" cy="55.8800" r="0.8500" /> 
<circle cx="127.0000" cy="58.4200" r="0.8500" /> 
<circle cx="127.0000" cy="60.9600" r="0.8500" /> 
<circle cx="127.0000" cy="63.5000" r="0.8500" /> 
<circle cx="127.0000" cy="66.0400" r="0.8500" /> 
<circle cx="127.0000" cy="68.5800" r="0.8500" /> 
<circle cx="127.0000" cy="71.1200" r="0.8500" /> 
<circle cx="127.0000" cy="73.6600" r="0.8500" /> 
<circle cx="127.0000" cy="76.2000" r="0.8500" /> 
<circle cx="124.4600" cy="53.3400" r="0.8500" /> 
</g>
<g style="fill:#000000; fill-opacity:1.0000; stroke:none;">
<circle cx="124.4600" cy="55.8800" r="0.8500" /> 
<circle cx="124.4600" cy="58.4200" r="0.8500" /> 
<circle cx="124.4600" cy="60.9600" r="0.8500" /> 
<circle cx="124.4600" cy="63.5000" r="0.8500" /> 
<circle cx="124.4600" cy="66.0400" r="0.8500" /> 
<circle cx="124.4600" cy="68.5800" r="0.8500" /> 
<circle cx="124.4600" cy="71.1200" r="0.8500" /> 
<circle cx="124.4600" cy="73.6600" r="0.8500" /> 
<circle cx="124.4600" cy="76.2000" r="0.8500" /> 
<circle cx="124.4600" cy="78.7400" r="0.8500" /> 
</g>
<g style="fill:#000000; fill-opacity:1.0000; stroke:none;">
<circle cx="124.4600" cy="81.2800" r="0.8500" /> 
<circle cx="124.4600" cy="83.8200" r="0.8500" /> 
<circle cx="124.4600" cy="86.3600" r="0.8500" /> 
<circle cx="124.4600" cy="88.9000" r="0.8500" /> 
<circle cx="124.4600" cy="91.4400" r="0.8500" /> 
<circle cx="124.4600" cy="93.9800" r="0.8500" /> 
<circle cx="124.4600" cy="96.5200" r="0.8500" /> 
<circle cx="124.4600" cy="99.0600" r="0.8500" /> 
<circle cx="124.4600" cy="101.6000" r="0.8500" /> 
<circle cx="121.9200" cy="78.7400" r="0.8500" /> 
</g>
<g style="fill:#000000; fill-opacity:1.0000; stroke:none;">
<circle cx="121.9200" cy="81.2800" r="0.8500" /> 
<circle cx="121.9200" cy="83.8200" r="0.8500" /> 
<circle cx="121.9200" cy="86.3600" r="0.8500" /> 
<circle cx="121.9200" cy="88.9000" r="0.8500" /> 
<circle cx="121.9200" cy="91.4400" r="0.8500" /> 
<circle cx="121.9200" cy="93.9800" r="0.8500" /> 
<circle cx="121.9200" cy="96.5200" r="0.8500" /> 
<circle cx="121.9200" cy="99.0600" r="0.8500" /> 
<circle cx="121.9200" cy="101.6000" r="0.8500" /> 
<circle cx="109.2200" cy="53.3400" r="0.8500" /> 
</g>
<g style="fill:#000000; fill-opacity:1.0000; stroke:none;">
<circle cx="109.2200" cy="55.8800" r="0.8500" /> 
<circle cx="109.2200" cy="58.4200" r="0.8500" /> 
<circle cx="109.2200" cy="60.9600" r="0.8500" /> 
<circle cx="109.2200" cy="63.5000" r="0.8500" /> 
<circle cx="109.2200" cy="66.0400" r="0.8500" /> 
<circle cx="109.2200" cy="68.5800" r="0.8500" /> 
<circle cx="109.2200" cy="71.1200" r="0.8500" /> 
<circle cx="109.2200" cy="73.6600" r="0.8500" /> 
<circle cx="109.2200" cy="76.2000" r="0.8500" /> 
<circle cx="121.9200" cy="53.3400" r="0.8500" /> 
</g>
<g style="fill:#000000; fill-opacity:1.0000; stroke:none;">
<circle cx="121.9200" cy="55.8800" r="0.8500" /> 
<circle cx="121.9200" cy="58.4200" r="0.8500" /> 
<circle cx="121.9200" cy="60.9600" r="0.8500" /> 
<circle cx="121.9200" cy="63.5000" r="0.8500" /> 
<circle cx="121.9200" cy="66.0400" r="0.8500" /> 
<circle cx="121.9200" cy="68.5800" r="0.8500" /> 
<circle cx="121.9200" cy="71.1200" r="0.8500" /> 
<circle cx="121.9200" cy="73.6600" r="0.8500" /> 
<circle cx="121.9200" cy="76.2000" r="0.8500" /> 
<circle cx="104.1400" cy="53.3400" r="0.8500" /> 
</g>
<g style="fill:#000000; fill-opacity:1.0000; stroke:none;">
<circle cx="104.1400" cy="55.8800" r="0.8500" /> 
<circle cx="104.1400" cy="58.4200" r="0.8500" /> 
<circle cx="104.1400" cy="60.9600" r="0.8500" /> 
<circle cx="104.1400" cy="63.5000" r="0.8500" /> 
<circle cx="104.1400" cy="66.0400" r="0.8500" /> 
<circle cx="104.1400" cy="68.5800" r="0.8500" /> 
<circle cx="104.1400" cy="71.1200" r="0.8500" /> 
<circle cx="104.1400" cy="73.6600" r="0.8500" /> 
<circle cx="104.1400" cy="76.2000" r="0.8500" /> 
<circle cx="127.0000" cy="78.7400" r="0.8500" /> 
</g>
<g style="fill:#000000; fill-opacity:1.0000; stroke:none;">
<circle cx="127.0000" cy="81.2800" r="0.8500" /> 
<circle cx="127.0000" cy="83.8200" r="0.8500" /> 
<circle cx="127.0000" cy="86.3600" r="0.8500" /> 
<circle cx="127.0000" cy="88.9000" r="0.8500" /> 
<circle cx="127.0000" cy="91.4400" r="0.8500" /> 
<circle cx="127.0000" cy="93.9800" r="0.8500" /> 
<circle cx="127.0000" cy="96.5200" r="0.8500" /> 
<circle cx="127.0000" cy="99.0600" r="0.8500" /> 
<circle cx="127.0000" cy="101.6000" r="0.8500" /> 
</g>
<g style="fill:none; 
stroke:#000000; stroke-width:1.0000; stroke-opacity:1; 
stroke-linecap:round; stroke-linejoin:round;">
<path d="M127.0000 76.2000
L104.1400 76.2000
" />
<path d="M127.0000 101.6000
L104.1400 101.6000
" />
<path d="M104.1400 78.7400
L127.0000 78.7400
" />
<path d="M104.1400 53.3400
L127.0000 53.3400
" />
<path d="M104.1400 66.0400
L127.0000 66.0400
" />
<path d="M104.1400 91.4400
L127.0000 91.4400
" />
<path d="M104.1400 71.1200
L127.0000 71.1200
" />
<path d="M104.1400 96.5200
L127.0000 96.5200
" />
<path d="M104.1400 55.8800
L127.0000 55.8800
" />
<path d="M104.1400 81.2800
L127.0000 81.2800
" />
<path d="M104.1400 60.9600
L127.0000 60.9600
" />
<path d="M104.1400 86.3600
L127.0000 86.3600
" />
<path d="M104.1400 73.6600
L127.0000 73.6600
" />
<path d="M104.1400 99.0600
L127.0000 99.0600
" />
<path d="M104.1400 88.9000
L127.0000 88.9000
" />
<path d="M104.1400 63.5000
L127.0000 63.5000
" />
<path d="M104.1400 68.5800
L127.0000 68.5800
" />
<path d="M104.1400 93.9800
L127.0000 93.9800
" />
<path d="M104.1400 83.8200
L127.0000 83.8200
" />
<path d="M104.1400 58.4200
L127.0000 58.4200
" />
</g> 
</svg>
